<?xml version="1.0" standalone="no"?>
<!DOCTYPE svg PUBLIC "-//W3C//DTD SVG 20010904//EN"
 "http://www.w3.org/TR/2001/REC-SVG-20010904/DTD/svg10.dtd">
<svg version="1.0" xmlns="http://www.w3.org/2000/svg"
 width="300.000000pt" height="300.000000pt" viewBox="0 0 300.000000 300.000000"
 preserveAspectRatio="xMidYMid meet">
<metadata>
Created by potrace 1.10, written by Peter Selinger 2001-2011
</metadata>
<g transform="translate(0.000000,300.000000) scale(0.100000,-0.100000)"
fill="#000000" stroke="none">
<path d="M1620 2606 c-73 -17 -101 -29 -124 -55 -24 -27 -32 -26 -67 3 -33 28
-106 46 -187 46 -207 -1 -377 -134 -442 -345 -7 -22 -19 -55 -26 -73 -8 -18
-14 -55 -14 -82 0 -41 4 -52 23 -65 47 -30 71 -92 75 -193 l4 -92 -31 -6 c-29
-6 -31 -9 -31 -53 0 -37 5 -52 24 -68 17 -15 26 -37 31 -73 10 -74 38 -132 85
-174 55 -50 103 -67 183 -68 86 0 162 34 205 93 29 38 64 136 77 211 5 30 11
39 32 44 47 12 77 -6 84 -52 9 -51 51 -155 79 -194 70 -99 262 -121 368 -43
76 56 100 103 117 226 5 37 10 47 21 43 26 -10 33 38 27 182 -6 134 -5 141 20
194 14 31 34 65 46 77 18 18 20 29 15 64 -4 23 -12 51 -19 62 -6 11 -15 34
-19 50 -26 106 -152 256 -258 305 -105 49 -194 60 -298 36z m310 -71 c36 -18
76 -42 90 -53 14 -12 -24 4 -85 34 -60 31 -112 58 -115 61 -11 12 48 -11 110
-42z m-188 24 c97 -21 297 -127 352 -188 32 -35 3 -24 -80 31 -93 60 -205 115
-254 124 -46 9 -29 -9 25 -26 81 -25 345 -178 345 -200 0 -16 -10 -12 -78 32
-36 23 -70 43 -77 44 -7 1 -38 18 -69 38 -81 52 -166 78 -268 84 -49 2 -88 1
-88 -4 0 -5 25 -7 55 -6 31 2 63 0 73 -4 9 -4 22 -8 27 -9 6 -1 45 -17 87 -37
76 -36 120 -64 189 -123 79 -67 105 -85 134 -90 55 -12 65 -16 65 -31 0 -22
-56 -17 -98 10 -20 13 -64 48 -97 78 -84 76 -142 113 -213 137 -62 21 -142 28
-142 13 0 -5 6 -9 13 -10 49 -5 151 -32 191 -52 28 -13 94 -66 154 -124 58
-56 103 -93 99 -83 -5 15 -2 16 21 11 46 -11 62 -24 62 -49 0 -13 -8 -30 -18
-37 -22 -15 -40 -61 -56 -143 l-12 -60 -12 40 c-7 22 -12 50 -12 63 0 12 -7
34 -16 47 -9 13 -13 28 -10 34 3 5 -6 19 -21 31 -16 12 -21 18 -13 15 8 -4 -1
9 -21 28 -39 38 -161 87 -217 87 -18 0 -32 5 -32 10 0 6 5 10 12 10 6 0 9 3 6
6 -3 3 -27 -4 -53 -16 -58 -26 -82 -21 -35 8 50 31 29 27 -33 -5 -51 -28 -54
-28 -237 -27 -102 0 -212 4 -245 9 l-60 8 43 19 c24 11 71 23 105 27 l62 8
-40 8 c-51 11 -148 -14 -205 -51 -23 -15 -68 -64 -101 -108 -94 -127 -97 -130
-115 -115 -13 11 -11 16 14 43 16 17 48 59 70 92 87 130 177 180 321 177 56
-1 80 2 74 8 -6 6 -60 11 -121 12 -108 1 -110 0 -162 -33 -29 -18 -88 -76
-132 -127 -49 -57 -87 -93 -99 -93 -10 0 -19 2 -19 5 0 2 55 60 123 128 129
131 152 145 284 177 29 6 50 16 47 21 -3 5 5 14 18 19 18 8 12 9 -27 4 -80 -9
-202 -73 -264 -139 -29 -31 -55 -54 -57 -52 -10 10 133 141 190 174 73 41 82
57 14 22 -61 -31 -151 -102 -187 -148 -33 -41 -71 -60 -71 -34 0 8 14 34 30
59 33 46 32 50 -3 34 -18 -9 -18 -7 3 7 35 26 78 66 60 57 -11 -5 -10 -2 3 13
23 26 135 78 212 98 32 8 89 15 125 15 57 0 72 -5 123 -35 32 -19 61 -35 66
-35 4 0 23 12 42 26 72 55 126 65 231 43z m366 -279 c17 0 32 -17 32 -37 0
-13 -58 11 -82 35 -37 34 -36 49 1 23 16 -12 38 -21 49 -21z m-1223 -43 c-19
-30 -82 -62 -73 -38 3 11 68 59 81 60 4 1 1 -10 -8 -22z m260 -27 c4 -6 -15
-10 -50 -10 -35 0 -54 4 -50 10 3 6 26 10 50 10 24 0 47 -4 50 -10z m676 -18
c127 -42 188 -108 214 -230 9 -42 22 -101 30 -130 13 -53 12 -54 -9 -48 -103
31 -172 41 -254 40 -52 0 -97 -5 -100 -10 -4 -5 -20 -10 -37 -12 -16 -2 -48
-12 -71 -23 -22 -10 -59 -19 -83 -19 -39 0 -42 -2 -35 -22 9 -31 7 -30 40 -17
16 6 41 13 56 15 l28 4 -20 -33 c-11 -17 -20 -48 -20 -67 l0 -35 -20 25 c-11
14 -20 31 -20 38 0 8 -18 12 -58 12 -56 0 -58 -1 -71 -32 l-13 -33 -19 45
c-11 24 -25 50 -31 57 -9 12 -2 13 43 8 29 -4 56 -8 58 -11 5 -4 30 27 31 39
0 4 -24 7 -52 6 -29 -1 -66 4 -83 11 -16 6 -37 13 -45 16 -8 2 -33 8 -55 13
-73 19 -159 12 -306 -24 -27 -7 -27 -7 -18 37 4 23 13 78 18 120 15 111 51
165 151 226 l45 27 240 2 c132 1 260 6 285 11 72 15 123 13 181 -6z m-761 -6
c0 -4 -68 -46 -76 -46 -2 0 3 11 12 25 10 15 26 25 40 25 13 0 24 -2 24 -4z
m869 -439 c64 -17 85 -50 89 -140 3 -51 -1 -84 -12 -111 -19 -46 -20 -49 -3
-39 6 4 1 -7 -13 -24 -26 -33 -88 -73 -111 -73 -8 0 4 9 26 19 22 10 51 31 65
47 24 27 23 27 -12 -3 -83 -71 -221 -70 -296 0 -48 45 -91 174 -76 231 8 32
65 84 102 92 15 3 32 7 37 9 24 8 164 2 204 -8z m169 -25 c4 -37 -20 -82 -43
-82 -9 0 -15 9 -15 23 0 12 -9 37 -20 55 -11 18 -20 35 -20 38 0 3 21 4 48 2
45 -3 47 -4 50 -36z m-844 4 c18 -7 44 -28 59 -45 31 -38 34 -77 13 -159 -31
-114 -96 -166 -207 -166 -38 0 -73 5 -82 12 -8 7 -21 10 -28 7 -17 -6 -49 21
-74 60 -13 21 -7 17 19 -12 21 -24 43 -43 49 -43 6 0 2 7 -11 15 -65 46 -99
177 -67 260 16 45 55 82 73 71 5 -3 28 2 53 9 50 17 153 12 203 -9z m-324 8
c0 -3 -7 -18 -15 -32 -8 -15 -20 -40 -26 -57 l-11 -30 -19 24 c-25 30 -24 49
3 78 19 20 68 33 68 17z"/>
<path d="M1079 2497 c-41 -16 -78 -33 -84 -39 -5 -5 7 -3 29 6 21 9 41 14 45
12 4 -3 38 5 76 16 39 11 102 24 140 28 68 8 67 8 -31 7 -84 -2 -113 -7 -175
-30z"/>
<path d="M1580 2355 c-35 -14 -35 -14 26 -9 133 13 254 -35 362 -143 69 -70
100 -93 71 -55 -42 56 -170 168 -219 190 -67 31 -186 40 -240 17z"/>
<path d="M1714 2291 c4 -5 0 -12 -6 -15 -7 -4 -2 -4 12 -1 14 2 39 5 55 6 26
0 27 2 10 9 -27 12 -78 12 -71 1z"/>
<path d="M1485 2170 c-24 -5 -7 -6 45 -3 47 3 87 7 89 9 7 7 -92 2 -134 -6z"/>
<path d="M1736 2161 c73 -27 101 -43 195 -111 l84 -61 -66 63 c-75 71 -152
115 -219 123 l-45 5 51 -19z"/>
<path d="M1152 2151 c-52 -18 -66 -27 -130 -86 -75 -68 -73 -87 2 -22 75 66
142 106 178 107 9 0 20 5 23 10 9 14 -13 12 -73 -9z"/>
<path d="M1740 1720 c-31 -5 -28 -7 30 -13 98 -12 140 -28 182 -68 27 -26 38
-31 38 -19 0 55 -154 117 -250 100z"/>
<path d="M1725 1655 c-40 -14 -115 -84 -115 -107 0 -7 13 3 30 22 l29 35 1
-33 c0 -57 13 -70 69 -70 58 0 91 24 91 66 0 35 -12 53 -47 68 l-28 12 37 1
c45 1 58 -17 58 -84 0 -28 4 -44 10 -40 13 8 13 71 0 96 -16 29 4 24 45 -12
20 -18 39 -28 43 -25 12 12 -54 64 -95 75 -50 14 -79 13 -128 -4z m25 -47 c0
-16 -5 -19 -25 -16 -20 4 -25 1 -25 -16 0 -12 7 -32 16 -44 8 -12 11 -22 5
-22 -15 0 -31 34 -31 64 0 28 35 70 50 61 6 -4 10 -15 10 -27z"/>
<path d="M1087 1696 c-27 -7 -61 -22 -75 -33 -36 -26 -72 -81 -71 -107 0 -20
1 -20 12 -2 44 69 57 83 92 103 22 12 60 25 85 29 25 4 54 10 65 15 34 13 -54
9 -108 -5z"/>
<path d="M1074 1636 c-31 -14 -79 -65 -69 -74 3 -3 18 6 33 20 25 23 64 48 76
48 2 0 -2 -14 -11 -30 -16 -32 -11 -82 10 -98 7 -4 33 -9 58 -10 71 -2 108 44
79 99 -14 25 4 26 22 1 7 -10 21 -21 30 -25 30 -11 9 19 -34 49 -48 34 -143
43 -194 20z m115 -13 c-11 -3 -15 -11 -12 -24 5 -19 -4 -24 -36 -19 -14 2 -12
-24 4 -64 6 -14 5 -17 -4 -12 -22 14 -31 54 -18 84 15 34 26 42 57 41 15 -1
18 -3 9 -6z m34 -68 c-3 -8 -14 -15 -24 -15 -23 0 -24 4 -3 24 18 19 36 12 27
-9z"/>
<path d="M2170 1677 c0 -4 5 -15 11 -25 9 -14 3 -29 -33 -83 -42 -61 -45 -70
-52 -154 -5 -58 -14 -101 -25 -120 -10 -16 -26 -53 -35 -81 -48 -149 -176
-289 -332 -365 -225 -109 -469 -45 -646 171 -38 47 -98 163 -98 190 0 8 -7 29
-16 45 -9 17 -22 48 -30 70 l-14 40 5 -42 c3 -26 1 -43 -5 -43 -5 0 -10 8 -10
18 0 18 -3 19 -52 13 -4 -1 -5 -7 -2 -15 5 -13 33 -27 59 -30 14 -1 34 -37 35
-62 0 -11 18 -57 40 -102 62 -129 194 -248 339 -305 188 -76 422 -15 592 153
92 90 148 183 178 293 12 41 17 47 41 47 30 0 51 20 68 65 17 48 25 98 14 91
-5 -3 -13 -23 -16 -43 -12 -65 -15 -71 -36 -66 -14 4 -22 -1 -28 -18 -16 -42
-20 -5 -7 56 7 33 13 52 14 43 1 -20 21 -25 21 -5 0 6 3 23 6 37 5 21 4 22 -6
8 -6 -10 -15 -18 -20 -18 -17 0 -11 57 8 80 l19 23 21 -21 c12 -12 22 -31 22
-42 0 -11 4 -20 9 -20 10 0 18 95 13 140 -3 24 -51 95 -52 77z m35 -107 c3 -6
3 -19 0 -30 -5 -16 -9 -18 -25 -8 -14 9 -16 16 -9 30 11 20 25 23 34 8z"/>
<path d="M797 1598 c-3 -10 7 -207 12 -235 1 -2 5 -3 10 -3 4 0 3 18 -3 40 -7
29 -7 49 1 70 7 18 7 32 2 36 -15 9 -10 42 6 46 13 3 12 7 -4 31 -13 20 -20
24 -24 15z"/>
<path d="M850 1434 c0 -5 7 -29 14 -54 l15 -45 0 35 c0 19 -6 44 -14 54 -8 11
-15 16 -15 10z"/>
<path d="M1366 1338 c-16 -38 -5 -81 27 -103 44 -31 149 -14 179 29 13 19 9
71 -7 92 -14 18 -15 17 -9 -18 9 -52 -27 -88 -89 -88 -61 0 -91 29 -84 81 6
47 0 50 -17 7z"/>
<path d="M1247 1307 c-51 -26 -67 -30 -152 -31 -83 -1 -92 -2 -70 -13 53 -28
262 19 279 62 3 8 4 14 3 14 -1 -1 -28 -15 -60 -32z"/>
<path d="M1960 1316 c-48 -29 -216 -31 -270 -3 l-35 18 23 -20 c44 -38 215
-55 271 -27 28 15 57 44 50 50 -2 2 -20 -6 -39 -18z"/>
<path d="M1343 1127 c-17 -7 -35 -15 -39 -19 -4 -5 74 -8 174 -8 100 0 182 4
182 9 0 5 -20 14 -44 20 -55 13 -66 14 -46 1 10 -7 -19 -9 -90 -9 -72 1 -94 4
-70 9 l35 7 -35 1 c-19 0 -49 -5 -67 -11z"/>
<path d="M1383 1048 c15 -9 156 -9 179 0 10 4 -29 7 -86 7 -57 0 -99 -3 -93
-7z"/>
</g>
</svg>
